<?xml version="1.0" encoding="UTF-8"?>
<svg xmlns="http://www.w3.org/2000/svg" xmlns:xlink="http://www.w3.org/1999/xlink" viewBox="0 0 21 21" width="21px" height="21px">
<g id="surface54148265">
<path style=" stroke:none;fill-rule:nonzero;fill:rgb(19.215687%,19.215687%,54.901963%);fill-opacity:1;" d="M 15.75 1.75 C 14.300781 1.75 13.125 2.925781 13.125 4.375 C 13.125 4.539062 13.140625 4.703125 13.171875 4.867188 L 6.945312 8.496094 C 6.472656 8.09375 5.871094 7.875 5.25 7.875 C 3.800781 7.875 2.625 9.050781 2.625 10.5 C 2.625 11.949219 3.800781 13.125 5.25 13.125 C 5.871094 13.125 6.46875 12.902344 6.945312 12.5 L 13.171875 16.132812 C 13.140625 16.296875 13.125 16.460938 13.125 16.625 C 13.125 18.074219 14.300781 19.25 15.75 19.25 C 17.199219 19.25 18.375 18.074219 18.375 16.625 C 18.375 15.175781 17.199219 14 15.75 14 C 15.128906 14 14.527344 14.222656 14.054688 14.625 L 7.828125 10.992188 C 7.859375 10.828125 7.875 10.664062 7.875 10.5 C 7.875 10.335938 7.859375 10.171875 7.828125 10.007812 L 14.054688 6.378906 C 14.527344 6.78125 15.128906 7 15.75 7 C 17.199219 7 18.375 5.824219 18.375 4.375 C 18.375 2.925781 17.199219 1.75 15.75 1.75 Z M 15.75 1.75 "/>
</g>
</svg>
